<?xml version="1.0" encoding="UTF-8"?>
<svg id="Layer_1" data-name="Layer 1" xmlns="http://www.w3.org/2000/svg" version="1.1" viewBox="0 0 119.4 93.4">
  <defs>
    <style>
      .cls-1 {
        opacity: .1;
      }

      .cls-2 {
        fill: #fff;
        stroke-width: 0px;
      }
    </style>
  </defs>
  <g class="cls-1">
    <path class="cls-2" d="M10.1,75.3s0,0,0,0c9.3,8.2,12.8,11.3,10.4,17.8,0,0,0,0-.1,0s0,0,0,0c-10.3-2.6-10.3-6.4-10.2-12.8,0-1.5,0-3.2,0-5M10,75c0,0-.2,0-.1.2.7,9.3-2.7,14.9,10.4,18.2,0,0,0,0,0,0,.2,0,.3-.1.3-.2,2.5-6.6-1-9.7-10.4-18.1,0,0-.2-.1-.3-.1h0Z"/>
    <path class="cls-2" d="M33.2,64c.4,1.9.8,3.7,1.2,5.4,2,8.3,3.2,13.3-9.1,19.5-4.6-7.3-1.2-12.2,8-24.9M33.3,63.4c-9.8,13.5-13.1,18.3-8.2,25.8,12.7-6.4,11.5-11.5,9.5-19.9-.4-1.8-.9-3.8-1.3-5.9h0Z"/>
    <path class="cls-2" d="M95.7,14.1c6.3,0,11.9,2.5,16.1,7.3,5.6,6.4,8.1,15.9,6.9,26.1,0,.2,0,.3-.1.3,0,0-.3-.1-.5-.6-1-2.3-1.9-4.4-2.6-6.2-4.5-11-6.4-15.5-19.1-16.8-.6,0-.7-.2-.7-.4-.1-3-2.4-6.5-5.3-8.4-.5-.3-.5-.5-.5-.5h0s0-.1.5-.2c1.9-.4,3.7-.6,5.5-.6M95.7,13.9c-1.8,0-3.6.2-5.5.6-1.2.3-.6.8,0,1.1,2.9,1.9,5.1,5.4,5.2,8.2,0,.5.5.6,1,.6,14.7,1.5,14.7,7.3,21.5,22.8.3.5.5.7.7.7s.3-.2.4-.5c2.2-17.9-7.4-33.7-23.2-33.7h0Z"/>
    <path class="cls-2" d="M38.3,39.5c1.2,0,2.3.4,3.2,1,1.3,1,2.2,2.7,2.4,5-3.4-1-5.4-2.2-6.8-5.9.4,0,.8-.1,1.2-.1M38.3,39.2c-.5,0-1,0-1.4.2,0,0,0,0,0,0,0,0,0,0,0,.1,1.5,4,3.7,5.3,7.4,6.3-.2-2.5-1.1-4.4-2.5-5.5-.9-.7-2.1-1.1-3.4-1.1h0Z"/>
    <path class="cls-2" d="M59.1,78.9c2.4,1.4,5,2.2,7.7,2.3-2.7-.2-5.3-1-7.7-2.3h0Z"/>
    <path class="cls-2" d="M43.9.2c11.5,0,22.3,4.4,30.5,12.4-.9,0-1.9,0-2.8,0-7.8,0-15.7,1.3-20.2,3.4-3.8,1.8-6.5,5.4-6.8,9.3-.3,3.4,1.3,6.4,4.3,8.4.9.6,1.7,1,2.4,1.3,1.5.8,2.4,1.2,3.5,3.7,1.4,2.5,2.9,5.4,7.6,5.4s1.7,0,2.7-.3c.6-.1,1.1-.2,1.5-.3.8-.2,1.2-.2,1.6-.2s.7,0,1.3.2c.4,0,1,.2,1.7.3,1,.2,1.9.3,2.7.3,4.7,0,6.2-2.9,7.6-5.5,1.3-3.2,2.1-3.5,4.7-4.5h.3c.2.8.4,1.7.5,2.5h0c-.1.2-.2.3-.3.4-5.1,6.1-5.6,14.6-6,21.3-.2,3.9-.4,7.2-1.4,9.1-2,4-6.6,6.6-11.5,6.6s-.3,0-.5,0c-4.8-.2-8.7-2.6-10.4-6.6-1-1.9-1.2-5.3-1.4-9.1-.4-6.8-.9-15.2-6-21.4-2.3-2.4-4.6-4.9-9.4-4.9s-3.4.3-5.5.9c-5.4,2-6.3,5.1-6.1,7.3.7,6.4,11.6,13.6,18.6,15.1.2,6.4.6,13,3,16.9,3.4,5.4,8.5,9.1,14.1,10.2-6.2,3.2-13.2,4.9-20.2,4.9s-7.3-.5-10.8-1.4c.8-.7,1.5-1.4,2-2.1,3,.7,6,1,9,1s7.7-.5,11.4-1.6h.2v-1.8h-.3c-3.6,1.2-7.4,1.7-11.3,1.7s-5.3-.3-7.9-.8c2.4-4.2,1.4-8.5.1-13.6-.5-2.1-1-4.3-1.4-6.8,0-.5-.4-.9-.9-1,0,0-.2,0-.3,0-.5,0-.9.3-1.2.7-4.7,6.5-8.1,11.2-9.9,15.3-11.3-7.3-18.1-19.7-18.1-33.2C4.5,22,22.2,4.3,44,4.3s14.7,2.1,21,6.1l.4.2v-1.8h0c0-.1-.1-.2-.1-.2-6.4-3.9-13.8-5.9-21.3-5.9C21.3,2.6,2.9,21.1,2.9,43.8s7.2,27.2,19.2,34.8c-.3.9-.5,1.8-.6,2.6C8.3,73.4.2,59.1.2,43.9.2,19.8,19.8.2,43.9.2M17.7,49.4c.4,0,1.1-.2,1.6-1.3,1-2.3,1.9-4.5,2.6-6.2,4.4-10.8,6.1-14.8,18.1-16,1.5-.2,1.8-1,1.8-1.5.1-2.6,2.2-5.8,4.8-7.4.3-.2,1.3-.8,1.1-1.7-.1-.6-.6-1-1.4-1.2-1.9-.4-3.8-.6-5.7-.6-5.8,0-11.1,2-15.3,5.8-7.1,6.5-10.4,17.3-9,28.9,0,.7.5,1.2,1.1,1.3,0,0,.1,0,.2,0M69.7,71.2c.3,0,.6,0,.8-.2,2.6-1.5,3.4-2.8,4.2-5,.2-.6.2-1.2-.1-1.6-.3-.4-.7-.5-1.2-.6-3,0-4.8,1.9-5.2,5.5,0,.7.2,1.3.7,1.7.2.1.5.2.8.2M66.1,71.2c.3,0,.5,0,.8-.2.5-.3.7-.9.7-1.7-.4-3.6-2.2-5.5-5.2-5.5-.5,0-.9.2-1.1.6-.3.4-.3,1-.1,1.6.8,2.2,1.6,3.6,4.2,5,.3.2.6.2.8.2M43.9,0C19.6,0,0,19.6,0,43.9s8.7,30.1,21.6,37.8c.1-1,.3-2.1.7-3.2C10.8,71.2,3.1,58.4,3.1,43.8,3.1,21.2,21.4,2.9,44,2.9s15,2.2,21.1,5.9v1.4c-6.1-3.9-13.4-6.1-21.1-6.1C22.1,4.1,4.3,21.9,4.3,43.8s7.4,26.5,18.4,33.5c1.7-4.1,5.2-8.9,10-15.5.2-.3.6-.6,1-.6s.1,0,.2,0c.4,0,.6.4.7.8.4,2.5.9,4.7,1.4,6.8,1.3,5.2,2.3,9.5-.3,13.7,2.7.6,5.5.9,8.3.9s7.8-.6,11.4-1.7v1.2c-3.6,1-7.4,1.6-11.4,1.6s-6.1-.4-9.1-1c-.7.8-1.5,1.7-2.5,2.5,3.6,1,7.4,1.5,11.4,1.5,7.6,0,14.7-1.9,20.9-5.3-5.7-.9-11.1-4.6-14.6-10.2-2.4-3.8-2.8-10.2-3-17-6.8-1.3-17.9-8.5-18.6-14.9-.2-2.1.6-5,5.9-7,2.1-.6,3.9-.9,5.4-.9,4.6,0,7,2.5,9.2,4.8,5.1,6.1,5.6,14.5,6,21.2.2,3.9.4,7.3,1.4,9.2,1.7,4.1,5.7,6.6,10.6,6.8.2,0,.3,0,.5,0,5,0,9.6-2.6,11.7-6.8,1-2,1.2-5.3,1.4-9.2.4-6.7.8-15.1,5.9-21.2.2-.2.3-.4.5-.5-.2-1-.4-2.1-.6-3.1l-.6.2c-2.6,1-3.5,1.4-4.9,4.7-1.4,2.5-2.9,5.3-7.4,5.3s-1.7,0-2.7-.3c-.7-.1-1.2-.2-1.7-.3-.7-.1-1-.2-1.4-.2s-.8,0-1.6.3c-.4,0-.9.2-1.5.3-1,.2-1.9.3-2.7.3-4.5,0-6-2.8-7.3-5.2-1.1-2.6-2-3.1-3.6-3.8-.7-.3-1.5-.7-2.4-1.3-3-2-4.4-4.9-4.2-8.2.3-3.8,2.9-7.4,6.7-9.1,4.5-2.1,12.5-3.4,20.1-3.4s2.3,0,3.5,0C67,4.9,56,0,43.9,0h0ZM17.7,49.1c0,0-.1,0-.2,0-.5,0-.8-.5-.9-1.1-1.4-11.6,1.9-22.3,8.9-28.7,4.2-3.8,9.4-5.8,15.1-5.8,1.8,0,3.7.2,5.6.6.3,0,1.1.2,1.3,1,.1.8-.6,1.3-1,1.5-2.7,1.7-4.8,5-4.9,7.6,0,.5-.3,1.2-1.6,1.3-12.1,1.2-13.8,5.3-18.3,16.2-.8,1.9-1.6,4-2.6,6.2-.5.9-1,1.1-1.4,1.1h0ZM69.7,71c-.2,0-.4,0-.6-.2-.4-.3-.6-.8-.5-1.4.4-3.5,2.1-5.3,4.9-5.3.4,0,.7.2.9.4.2.3.3.8,0,1.4-.8,2.1-1.6,3.5-4.1,4.9-.2.1-.5.2-.7.2h0ZM66.1,71c-.2,0-.5,0-.7-.2-2.5-1.4-3.3-2.8-4.1-4.9-.2-.6-.2-1,0-1.4.2-.3.5-.4.9-.4s0,0,0,0c2.9,0,4.5,1.8,4.9,5.3h0c0,.6-.1,1.1-.6,1.4-.2.1-.4.2-.6.2h0Z"/>
    <path class="cls-2" d="M67.3,20.9c4.7,0,9.6.8,13.5,2.2,1.4.5,2.3,1.4,2.4,2.5,0,.7-.2,1.3-.8,1.7-4.1,1.3-6.7,3.9-8,7.9-.3.8-.7.9-.9.9s-.3,0-.6-.1c-1.6-.6-3.2-.8-4.8-.8s-3.3.3-4.9.9c-.2,0-.4.1-.6.1-.3,0-.6,0-.9-.8-1.3-4.1-4-6.8-8-8-.5-.3-.7-.8-.7-1.4,0-.8.7-1.9,2.4-2.6,3.2-1.5,7.4-2.3,12.1-2.3M67.3,20.7c-4.4,0-8.7.7-12.2,2.3-1.8.7-2.5,1.9-2.5,2.8,0,.7.2,1.3.8,1.7,4,1.2,6.6,3.8,7.9,7.9.3.8.7,1,1.1,1s.4,0,.7-.2c1.6-.6,3.2-.8,4.8-.8s3.2.3,4.7.8h0c.2.1.5.2.7.2.5,0,.8-.3,1.2-1.1,1.3-4,3.9-6.6,7.9-7.8.7-.4,1-1.1.9-1.9-.1-1.1-1.1-2.1-2.5-2.7-3.8-1.3-8.7-2.2-13.5-2.2h0Z"/>
    <path class="cls-2" d="M71.5,14.5c1.6,0,3.3,0,4.9.2,1.2,0,2.3.2,3.3.4,1.9.4,3.5.9,4.8,1.5,2.9,1.4,5.1,3.9,5.9,6.9.6,2.4.2,4.7-1.2,6.6-.9.8-1.9,1.5-3,1.9h-.1s-.8.3-.8.3c-2.7,1.1-4.2,1.6-5.8,5.5-1.3,2.3-2.4,4.4-5.9,4.4s-1.5,0-2.4-.3c-.7-.1-1.2-.2-1.6-.3-.8-.2-1.3-.3-1.7-.3s-1,0-2,.3h0c-.4,0-.9.2-1.5.3-.9.2-1.7.3-2.4.3-3.5,0-4.6-2-5.8-4.3-1.3-3.1-2.6-3.8-4.3-4.6-.6-.3-1.3-.7-2.2-1.2-2.4-1.6-3.7-4-3.4-6.7.3-3.2,2.5-6.3,5.7-7.8,4.1-1.9,12-3.2,19.5-3.2M62.4,38c.4,0,.8,0,1.3-.3,1.4-.5,2.8-.7,4.2-.7s2.8.2,4.2.7c.4.2.9.3,1.3.3,1.2,0,2.1-.7,2.7-2.2,1.1-3.5,3.4-5.8,6.9-6.8h.2c.6-.5,1.1-1,1.4-1.7.3-.6.4-1.3.3-1.9-.2-1.6-1.3-3.1-3.2-3.9h-.1c-.1,0-.2-.1-.3-.2-4.1-1.5-9.2-2.3-14.1-2.3-5,0-9.4.8-12.9,2.4-2,.8-3.4,2.4-3.5,4.2-.1,1.4.5,2.6,1.7,3.3h.2c3.5,1.1,5.8,3.4,6.9,7,.6,1.4,1.5,2.1,2.7,2.1M71.5,14.3c-7.4,0-15.3,1.2-19.6,3.2-3.3,1.5-5.6,4.7-5.9,8-.2,2.8,1,5.2,3.6,6.9.8.6,1.5.9,2.2,1.2,1.7.8,3,1.5,4.2,4.5,1.3,2.3,2.4,4.4,6,4.4s1.5,0,2.4-.3c.6-.1,1.1-.2,1.5-.3.9-.2,1.4-.3,1.9-.3s.9,0,1.7.3c.4,0,.9.2,1.6.3.9.2,1.7.3,2.4.3,3.6,0,4.8-2.1,6.1-4.5,1.5-3.8,2.9-4.3,5.6-5.4l.8-.3h.1c1.2-.5,2.2-1.2,3.1-2,3.5-4.7.7-11.3-4.8-13.8-1.4-.6-3-1.1-4.9-1.6-1.1-.2-2.2-.3-3.4-.4-1.6-.1-3.2-.2-4.9-.2h0ZM62.4,37.8c-1.1,0-1.9-.7-2.5-1.9-1.2-3.7-3.5-6-7.1-7h-.2c-1.1-.7-1.7-1.9-1.6-3.1.1-1.7,1.4-3.2,3.4-4,3.7-1.7,8.2-2.4,12.8-2.4,5,0,10.1.9,14,2.3.1,0,.3.1.4.2,1.8.8,2.9,2.1,3,3.7,0,.6,0,1.3-.3,1.8-.3.6-.7,1.1-1.4,1.5h-.2c-3.6,1.2-5.9,3.4-7.1,7-.6,1.3-1.4,2-2.5,2s-.8,0-1.2-.2c-1.4-.5-2.9-.7-4.3-.7s-2.9.3-4.3.8c-.4.2-.8.2-1.2.2h0Z"/>
    <path class="cls-2" d="M72.8,65.8c-.5,1.3-1.1,2.2-2.5,3.1.4-2.3,1.5-2.9,2.5-3.1M73.1,65.5c-1.3,0-2.8.7-3.2,3.9,1.9-1.1,2.5-2.2,3.2-3.9h0Z"/>
    <path class="cls-2" d="M97.8,33.1c.2,0,.4,0,.6,0,1,.1,2,.4,3,.7,3.8,1.4,5.5,3.4,5.3,6-.6,6-11.9,13.2-18.3,14.1h-.2s0,.2,0,.2c-.2,6.9-.6,13.4-2.9,17.1-3.9,6.2-10.1,9.7-16.9,9.7s-.7,0-1,0h0s0,0,0,0c0,0-.1,0-.2,0h-.2s0,.2,0,.2v-.3c-2.7-.2-5.3-1-7.7-2.3-.2,0-.3-.2-.5-.3,0,0-.2-.1-.3-.2-2.7-1.7-5.1-4.1-6.9-6.9-2.2-3.6-2.6-10-2.8-16.7v-.6s0-.2,0-.2h-.2s-.6-.1-.6-.1c-6.2-.9-17.1-7.8-17.7-13.5-.2-2.2,1.4-4,4.7-5.3,1.9-.5,3.5-.8,4.9-.8,3.9,0,5.8,2,8,4.3,4.7,5.7,5.2,13.7,5.5,20.2.2,4.1.4,7.6,1.6,9.8,2,4.7,6.5,7.6,12,7.7.2,0,.4,0,.5,0,3.4,0,6.6-1.1,9.2-3,1.7-1.3,3.1-2.9,4-4.7.1-.2.2-.5.3-.8,0-.2.1-.4.2-.6.7-2.3.9-5.3,1.1-8.5.4-6.3.8-14.1,5.2-19.7l.2-.3h0c0,0,0-.1,0-.2,3-3.5,6.2-5.3,9.9-5.3M44.6,47.6c.3,0,.6,0,.8-.3.2-.2.5-.5.5-1.1-.2-4.1-1.9-6.2-3.2-7.2-1.2-.9-2.7-1.4-4.4-1.4-.6,0-1.2,0-1.8.2-.7.1-1,.5-1.2.8-.2.4-.3,1,0,1.5,1.8,4.8,4.5,6.3,8.9,7.5,0,0,.3,0,.5,0M91.7,46.5c0,0,.2,0,.3,0,.7-.2,1.3-.4,1.9-.6,2.5-1,4.4-2.5,5.6-4.5.3-.6.6-1.1.8-1.8,0-.1,0-.2.1-.4.1-.6-.2-1-.8-1.2-.6-.1-1.1-.2-1.7-.2-3.1,0-6.6,2.1-6.9,8,0,.2,0,.4.1.5,0,.1.2.2.4.2M97.8,32.9c-3.7,0-7.1,1.8-10.1,5.3,0,0,0,.1-.1.2,0,0-.1.2-.2.3-4.4,5.7-4.9,13.5-5.2,19.9-.2,3.3-.4,6.3-1.1,8.4,0,.2-.1.4-.2.6-.1.3-.2.5-.3.8-.9,1.8-2.3,3.4-3.9,4.6-2.5,1.9-5.7,2.9-9.1,2.9s-.3,0-.5,0c-5.5-.2-9.9-3-11.8-7.6-1.1-2.2-1.3-5.7-1.6-9.8-.4-6.5-.8-14.6-5.6-20.3-2.2-2.3-4.1-4.4-8.1-4.4s-3,.2-5,.8c-3.5,1.3-5.2,3.2-4.9,5.5.6,5.8,11.6,12.8,17.9,13.7h.6c0,0,0,.7,0,.7.2,6.8.5,13.2,2.8,16.9,1.9,2.9,4.3,5.3,6.9,7,0,0,.2.1.3.2.2,0,.3.2.5.3,2.4,1.3,5.1,2.1,7.7,2.3,0,0,0,0,0,0,.1,0,.3,0,.4,0,0,0,0,0,.1,0,.3,0,.7,0,1,0,6.5,0,13-3.3,17.1-9.9,2.4-3.8,2.7-10.5,2.9-17.2,9.3-1.4,27.8-15.2,13.1-20.6-1.1-.3-2.1-.5-3.1-.7-.2,0-.4,0-.7,0h0ZM44.6,47.4c-.2,0-.3,0-.4,0-4.3-1.1-7-2.6-8.7-7.3-.2-.5-.2-.9,0-1.3.1-.2.4-.6,1-.7.6-.1,1.2-.2,1.8-.2,1.6,0,3,.5,4.2,1.4,1.3,1,2.9,3.1,3.1,7,0,.5-.2.8-.4.9-.2.2-.4.2-.6.2h0ZM91.7,46.2c-.2,0-.3,0-.3-.4.3-5.3,3.2-7.8,6.6-7.8.5,0,1.1,0,1.6.2.6.1.6.5.6.9,0,.1,0,.2-.1.3-.3.7-.5,1.2-.8,1.8-1.1,1.8-2.9,3.4-5.5,4.4-.6.2-1.2.4-1.9.6,0,0-.2,0-.2,0h0Z"/>
    <path class="cls-2" d="M63,65.8c1,.2,2,.8,2.5,3.1-1.4-.9-2-1.8-2.5-3.1M62.7,65.5c.6,1.7,1.3,2.8,3.2,3.9-.4-3.1-1.8-3.8-3.2-3.9h0Z"/>
    <path class="cls-2" d="M40.5,15.2c1.5,0,3,.1,4.5.4-2.8,2-4.8,5.3-5,8.3,0,0,0,0-.1,0-13.1,1.3-15.1,6-19.7,17.2h0c-.6,1.5-1.3,3.2-2,4.9-.8-10.3,2.3-19.8,8.5-25.5,3.9-3.6,8.5-5.4,13.8-5.4M40.5,15c-5.3,0-10.1,1.8-14,5.4-6.5,6-9.7,15.9-8.5,26.7.9-2.1,1.7-4.1,2.4-5.8,4.6-11.2,6.5-15.8,19.5-17.1.2,0,.3,0,.3,0,.2-3,2.4-6.6,5.4-8.6-1.8-.4-3.5-.5-5.1-.5h0Z"/>
  </g>
</svg>