<?xml version="1.0" encoding="UTF-8"?>
<svg id="Layer_1" data-name="Layer 1" xmlns="http://www.w3.org/2000/svg" version="1.1" viewBox="0 0 225 237.9">
  <defs>
    <style>
      .cls-1 {
        fill: #fff;
        stroke-width: 0px;
      }
    </style>
  </defs>
  <path class="cls-1" d="M168.5,13.3V0h-48.6v10.4l7.3,22.9-7.3,23.1h-14.7l-7.4-23.1,7.3-22.9V0h-48.5v13.3h10.1v95.6h-10.1v13.3h47.1v-11.8c-2.4-1-4.5-2.5-6.3-4.2l-.8-1.2c-1.9-2.1-3.3-4.5-4.2-7.2-3.8-11.1,2-23.1,13.1-26.9v20.2c0,1,.3,2,.7,2.9.3.8.8,1.4,1.3,2,.6.6,1.3,1.1,2.1,1.5,3.6,1.7,7.8,0,9.5-3.5.4-.9.7-1.9.7-3v-20.2c2.6.9,5,2.3,7.1,4.2,8.7,7.8,9.5,21.2,1.7,29.9l-.9,1.1c-1.8,1.8-3.8,3.2-6.1,4.3v11.8h47v-13.3h-10.1V13.3h10.1,0Z"/>
  <g>
    <path class="cls-1" d="M58.5,237.7h-4.6v-7.4h-6.4v7.4h-4.6v-18.1h4.6v7.1h6.4v-7.1h4.6v18.1Z"/>
    <path class="cls-1" d="M90.7,232.8c0,1.8-.4,3.1-1.2,3.9-.8.8-2.1,1.2-3.9,1.2h-6.4c-1.8,0-3.1-.4-3.9-1.2s-1.2-2.1-1.2-3.9v-8.3c0-1.8.4-3.1,1.2-3.9s2.1-1.2,3.9-1.2h6.4c1.8,0,3.1.4,3.9,1.2s1.2,2.1,1.2,3.9v8.3ZM86,224.5c0-1-.5-1.5-1.5-1.5h-4.4c-1,0-1.5.5-1.5,1.5v8.3c0,1,.5,1.5,1.5,1.5h4.4c1,0,1.5-.5,1.5-1.5v-8.3Z"/>
    <path class="cls-1" d="M122.3,232.8c0,1.8-.4,3.1-1.2,3.9-.8.8-2.1,1.2-3.9,1.2h-6.4c-1.8,0-3.1-.4-3.9-1.2s-1.2-2.1-1.2-3.9v-8.3c0-1.8.4-3.1,1.2-3.9s2.1-1.2,3.9-1.2h6.4c1.8,0,3.1.4,3.9,1.2s1.2,2.1,1.2,3.9v8.3ZM117.6,224.5c0-1-.5-1.5-1.5-1.5h-4.4c-1,0-1.5.5-1.5,1.5v8.3c0,1,.5,1.5,1.5,1.5h4.4c1,0,1.5-.5,1.5-1.5v-8.3Z"/>
    <path class="cls-1" d="M153.1,227.6l-3.6,6.4h-3.6l-3.6-6.4v10.1h-4.6v-18.1h4.9l5.2,9.5,5.2-9.5h4.9v18.1h-4.6v-10.1h-.2Z"/>
    <path class="cls-1" d="M182.2,237.7h-9.3v-3.6h2.3v-10.8h-2.3v-3.6h9.3v3.6h-2.3v10.8h2.3v3.6Z"/>
  </g>
  <g>
    <path class="cls-1" d="M96.4,156.7h-9.3c-3.1,0-6.1,1.3-8.3,3.4-2.2,2.2-3.4,5.2-3.4,8.3v12h-12.2c-1.7,0-3.2-1.5-3.2-3.3v-8.7c0-3.1-1.2-6-3.4-8.2s-5.1-3.4-8.2-3.4h-5.7c-3.1,0-6,1.2-8.3,3.4-2.2,2.2-3.4,5.1-3.4,8.2v8.7c0,.9-.3,1.7-1,2.3s-1.5,1-2.3,1h-15.9c-1.8,0-3.3-1.5-3.3-3.3v-20.4H0v20.4c0,3.1,1.2,6.1,3.4,8.3,2.2,2.2,5.1,3.4,8.3,3.4h15.9c3.1,0,6-1.2,8.2-3.4s3.5-5.2,3.5-8.3v-8.7c0-1.8,1.5-3.3,3.3-3.3h5.7c1.8,0,3.3,1.5,3.3,3.3v8.7c0,3.1,1.2,6,3.4,8.3,2.2,2.2,5,3.4,8.1,3.4h33.3c3.1,0,6-1.2,8.2-3.4s3.5-5.1,3.5-8.2v-8.7c0-3.1-1.3-6.1-3.4-8.3-2.2-2.2-5.1-3.4-8.2-3.4h0ZM99.7,177.1c0,1.8-1.5,3.3-3.3,3.3h-12.7v-12c0-.8.4-1.7,1-2.3.6-.7,1.4-1,2.3-1h9.3c.9,0,1.8.4,2.3,1,.6.6,1,1.5,1,2.3v8.7h0Z"/>
    <path class="cls-1" d="M213.3,156.7h-24.7v8.4h7.6l-1.5.7c-3.9,1.8-6.1,5-6.1,9s.4,3.5,1.3,5l.3.6h-40.9v-12c0-3.1-1.3-6.1-3.4-8.3-2.2-2.2-5.2-3.4-8.3-3.4h-9.3c-3,0-6,1.3-8.2,3.4-2.2,2.2-3.4,5.2-3.4,8.3v8.7c0,3.1,1.2,6,3.4,8.2,2.2,2.2,5.2,3.4,8.2,3.4h12.7v4.6c0,.9-.4,1.7-1,2.3s-1.5,1-2.4,1h-9v8.4h9c3.1,0,6.1-1.3,8.3-3.4,2.2-2.2,3.4-5.2,3.4-8.3v-4.6h64c3.1,0,6.1-1.2,8.3-3.4s3.4-5.1,3.4-8.3v-8.7c0-3.1-1.2-6.1-3.4-8.3s-5.2-3.4-8.3-3.4h0ZM141,180.4h-12.7c-1,0-1.8-.5-2.3-1-.6-.6-1-1.4-1-2.3v-8.7c0-1.8,1.5-3.3,3.3-3.3h9.3c.9,0,1.7.4,2.4,1,.6.6,1,1.5,1,2.3v12ZM199.2,178.4c-2.1,0-3.6-1.6-3.6-3.6s1.6-3.6,3.6-3.6,3.6,1.6,3.6,3.6-1.5,3.6-3.6,3.6ZM216.7,177.1c0,.9-.4,1.7-1,2.3-.7.6-1.6,1-2.4,1h-5.1l.3-.6c.9-1.5,1.3-3.2,1.3-5,0-3.7-1.9-7.1-5-9l-1.1-.7h9.7c.8,0,1.7.3,2.4.9.6.6,1,1.5,1,2.4v8.7h0Z"/>
    <rect class="cls-1" x="21.8" y="197.7" width="7.4" height="7.4"/>
    <rect class="cls-1" x="9.9" y="197.7" width="7.4" height="7.4"/>
  </g>
</svg>